<?xml version="1.0" standalone="no"?>
<!DOCTYPE svg PUBLIC "-//W3C//DTD SVG 20010904//EN"
 "http://www.w3.org/TR/2001/REC-SVG-20010904/DTD/svg10.dtd">
<svg version="1.0" xmlns="http://www.w3.org/2000/svg"
 width="570.000000pt" height="471.000000pt" viewBox="0 0 570.000000 471.000000"
 preserveAspectRatio="xMidYMid meet">
<metadata>
Created by potrace 1.16, written by Peter Selinger 2001-2019
</metadata>
<g transform="translate(0.000000,471.000000) scale(0.100000,-0.100000)"
fill="#000000" stroke="none">
<path d="M0 2355 l0 -2355 2850 0 2850 0 0 2355 0 2355 -2850 0 -2850 0 0
-2355z m1811 1715 c39 -397 50 -526 60 -749 5 -129 13 -239 16 -244 3 -5 16
12 28 39 85 184 244 513 284 588 27 50 85 161 130 247 45 86 98 187 119 225
l37 69 280 3 c154 1 285 0 292 -3 12 -4 -30 -82 -120 -221 -14 -22 -67 -106
-117 -189 -51 -82 -121 -195 -155 -250 -571 -922 -594 -960 -610 -1036 -17
-81 -159 -725 -176 -801 l-11 -48 -265 0 -265 0 7 33 c3 17 18 84 32 147 14
63 31 142 38 175 13 62 56 257 100 454 l25 115 -35 185 c-20 103 -47 240 -60
306 -37 192 -62 317 -100 520 -20 105 -47 244 -60 310 -13 66 -31 157 -40 203
-9 45 -13 87 -10 93 4 6 110 8 283 7 l276 -3 17 -175z m2456 170 c137 -19 270
-75 346 -148 41 -39 91 -118 117 -187 21 -52 24 -78 24 -200 0 -114 -4 -156
-22 -225 -60 -223 -175 -358 -365 -424 -95 -33 -96 -35 -23 -61 216 -76 310
-277 262 -565 -60 -354 -232 -574 -532 -676 -136 -46 -151 -47 -762 -51 -560
-4 -583 -3 -578 14 3 10 26 117 51 238 25 121 53 252 61 290 9 39 22 100 30
138 8 37 21 97 29 135 8 37 44 209 80 382 36 173 72 345 80 383 8 37 21 97 29
135 8 37 22 101 31 142 53 252 145 685 145 687 0 9 931 1 997 -7z m-2398
-2807 c-8 -9 -36 -37 -64 -62 -27 -25 -115 -107 -195 -181 -80 -74 -200 -184
-265 -245 -66 -60 -156 -144 -200 -185 -44 -42 -113 -106 -154 -143 l-73 -67
-289 0 c-158 0 -290 4 -293 8 -5 8 62 72 339 326 60 56 177 164 260 241 148
138 217 202 305 283 l45 41 299 1 c278 0 298 -1 285 -17z m1001 -2 c-5 -11
-14 -21 -19 -23 -8 -3 -48 -40 -386 -353 -82 -76 -172 -160 -200 -186 -27 -25
-116 -107 -197 -182 l-147 -137 -291 0 c-249 0 -291 2 -288 14 2 8 104 108
228 222 124 114 259 239 300 278 41 39 127 118 190 176 63 58 140 129 170 157
l55 53 298 0 c290 0 297 0 287 -19z m1010 10 c0 -5 -11 -18 -25 -29 -14 -11
-78 -69 -142 -129 -65 -60 -188 -174 -273 -253 -85 -79 -180 -166 -210 -195
-30 -28 -112 -104 -183 -168 l-127 -117 -290 0 c-245 0 -290 2 -290 14 0 8 11
23 25 34 25 20 191 172 325 298 41 38 167 155 280 259 113 104 231 213 262
242 l57 53 295 0 c175 0 296 -4 296 -9z m651 0 c143 -24 269 -130 325 -276 15
-39 19 -76 19 -170 0 -118 -1 -121 -37 -196 -62 -127 -174 -210 -325 -240 -50
-10 -76 -11 -125 -1 -200 40 -331 176 -359 373 -24 162 23 304 129 399 112
100 228 134 373 111z m-771 -671 l0 -220 -231 0 c-184 0 -230 3 -227 13 3 11
445 427 454 427 2 0 4 -99 4 -220z"/>
<path d="M3705 3810 c-4 -6 -13 -39 -20 -73 -20 -92 -72 -330 -95 -432 -11
-49 -18 -96 -15 -104 4 -11 40 -13 189 -9 l183 4 69 34 c153 75 249 229 249
400 0 100 -14 127 -85 162 -41 21 -62 23 -256 26 -155 3 -213 1 -219 -8z"/>
<path d="M3486 2803 c-5 -16 -46 -208 -102 -478 -9 -44 -23 -104 -30 -134 -7
-30 -11 -58 -8 -63 3 -4 90 -8 194 -8 211 0 275 12 364 71 122 81 216 287 204
444 -7 77 -36 123 -101 158 -39 21 -56 22 -279 25 -222 3 -236 2 -242 -15z"/>
</g>
</svg>
